# Blender v2.76 (sub 0) OBJ File: ''
# www.blender.org
mtllib bullet.mtl
o Cone.001
v -0.153744 -0.216766 -0.256325
v 0.000020 0.002864 0.129426
v -0.248251 0.075171 -0.262770
v 0.000261 0.255241 -0.266794
v 0.248356 0.074596 -0.262835
v 0.153175 -0.217122 -0.256365
v 0.248293 0.065703 -0.897757
v -0.153806 -0.225659 -0.891246
v -0.248314 0.066277 -0.897691
v 0.000197 0.246349 -0.901715
v 0.153113 -0.226015 -0.891287
vn -0.567500 -0.775000 0.278200
vn 0.000200 0.022100 0.999800
vn -0.917100 0.303200 0.258700
vn 0.001100 0.969100 0.246500
vn 0.917900 0.301100 0.258500
vn 0.565700 -0.776300 0.278000
vn 0.764100 0.236500 -0.600200
vn -0.473000 -0.660000 -0.583600
vn -0.763600 0.238300 -0.600100
vn 0.000800 0.792100 -0.610300
vn 0.471400 -0.661100 -0.583700
usemtl None
s 1
f 1//1 2//2 3//3
f 4//4 2//2 5//5
f 6//6 2//2 1//1
f 3//3 2//2 4//4
f 5//5 2//2 6//6
f 4//4 5//5 7//7
f 7//7 8//8 9//9
f 4//4 10//10 9//9
f 3//3 9//9 8//8
f 6//6 1//1 8//8
f 5//5 6//6 11//11
f 10//10 4//4 7//7
f 9//9 10//10 7//7
f 7//7 11//11 8//8
f 3//3 4//4 9//9
f 1//1 3//3 8//8
f 11//11 6//6 8//8
f 7//7 5//5 11//11
