# Blender v2.76 (sub 0) OBJ File: ''
# www.blender.org
mtllib monument.mtl
o Cone
v 0.000000 1.000000 3.408376
v 0.000000 0.000000 5.416557
v 0.866025 -0.500000 3.408376
v -0.866025 -0.500000 3.408376
v 0.023488 1.278720 3.408376
v 1.115042 -0.611908 3.408376
v -1.068067 -0.611907 3.408376
v 0.023488 2.033765 1.795835
v 1.768931 -0.989430 1.795835
v -1.721955 -0.989430 1.795835
v 0.023488 2.299848 1.795835
v 1.999365 -1.122472 1.795835
v -1.952390 -1.122471 1.795835
v 0.023488 3.699160 0.007968
v 3.211205 -1.822128 0.007968
v -3.164229 -1.822127 0.007968
vn -0.000000 -0.970400 0.241600
vn 0.840400 0.485200 0.241600
vn -0.840400 0.485200 0.241600
vn 0.000000 0.000000 1.000000
vn -0.843200 0.486800 0.228000
vn -0.000000 -0.973700 0.228000
vn 0.843200 0.486800 0.228000
vn -0.806500 0.465600 0.364400
vn -0.000000 0.000000 -1.000000
vn -0.000000 -0.931200 0.364400
vn 0.806500 0.465600 0.364400
usemtl None
s off
f 3//1 2//1 4//1
f 1//2 2//2 3//2
f 4//3 2//3 1//3
f 4//4 1//4 5//4 7//4
f 7//5 5//5 8//5 10//5
f 3//4 4//4 7//4 6//4
f 1//4 3//4 6//4 5//4
f 10//4 8//4 11//4 13//4
f 6//6 7//6 10//6 9//6
f 5//7 6//7 9//7 8//7
f 13//8 11//8 14//8 16//8
f 9//4 10//4 13//4 12//4
f 8//4 9//4 12//4 11//4
f 14//9 15//9 16//9
f 12//10 13//10 16//10 15//10
f 11//11 12//11 15//11 14//11
