# Blender v2.76 (sub 0) OBJ File: ''
# www.blender.org
mtllib tree.mtl
o Cone
v 0.000000 0.109828 -1.311219
v 1.247043 0.109828 -0.405189
v 0.770715 0.109828 1.060798
v -0.770715 0.109828 1.060798
v -1.247043 0.109828 -0.405189
v 0.000000 2.732266 0.000000
v -0.000000 0.109828 -0.000000
vn -0.533300 -0.420200 0.734100
vn 0.000000 1.000000 0.000000
vn -0.863000 -0.420200 -0.280400
vn 0.000000 -0.420200 -0.907400
vn 0.863000 -0.420200 -0.280400
vn 0.533300 -0.420200 0.734100
vn 0.000000 -1.000000 0.000000
usemtl None
s 1
f 4//1 6//2 5//3
f 1//4 6//2 2//5
f 3//6 6//2 4//1
f 5//3 6//2 1//4
f 2//5 6//2 3//6
f 1//4 2//5 7//7
f 5//3 1//4 7//7
f 4//1 5//3 7//7
f 3//6 4//1 7//7
f 2//5 3//6 7//7
